<?xml version="1.0" encoding="UTF-8" standalone="no"?>
<svg
   version="1.1"
   width="15.7480in"
   height="11.8110in"
   viewBox="0 0 1133.8583 850.3937"
   id="svg6"
   sodipodi:docname="Ban-PT.cdr"
   xmlns:inkscape="http://www.inkscape.org/namespaces/inkscape"
   xmlns:sodipodi="http://sodipodi.sourceforge.net/DTD/sodipodi-0.dtd"
   xmlns="http://www.w3.org/2000/svg"
   xmlns:svg="http://www.w3.org/2000/svg">
  <defs
     id="defs6" />
  <sodipodi:namedview
     id="namedview6"
     pagecolor="#ffffff"
     bordercolor="#000000"
     borderopacity="0.25"
     inkscape:showpageshadow="2"
     inkscape:pageopacity="0.0"
     inkscape:pagecheckerboard="0"
     inkscape:deskcolor="#d1d1d1"
     inkscape:document-units="in" />
  <g
     id="Layer1000">
    <path
       d="  M0.0000,0.0000 L0.0000,850.3937 L1133.8583,850.3937 L1133.8583,0.0000 L0.0000,0.0000 Z"
       style="fill: none; "
       id="path1" />
    <g
       id="Layer1001">
      <path
         d="  M566.9241,130.8071 A408.6927,239.7556 0.0000 0,1 975.6168,370.5627 A408.6927,239.7556 0.0000 1,1 566.9241,130.8071 Z"
         style="fill-rule: evenodd; fill: #3337a3; "
         id="path2" />
      <path
         d="  M566.9241,153.1115 A381.7023,217.4512 0.0000 0,1 948.6264,370.5627 A381.7023,217.4512 0.0000 1,1 566.9241,153.1115 Z"
         style="fill-rule: evenodd; fill: #30ddff; "
         id="path3" />
      <path
         d="  M566.9237,178.3269 C613.1028,178.3269 653.8941,210.9422 678.4347,260.7796 C641.4483,261.8676 604.4628,262.4011 567.4782,262.3843 C530.1677,262.3667 492.8338,261.7880 455.4764,260.6531 C480.0237,210.8869 520.7831,178.3269 566.9237,178.3269 Z Z M687.8804,283.0379 C696.2071,306.0383 701.3596,331.7187 702.5079,358.9294 L431.3396,358.9294 C432.4903,331.6651 437.6613,305.9353 446.0173,282.9006 C486.5046,284.2180 526.9909,284.8905 567.4782,284.9090 C607.6396,284.9274 647.7734,284.3043 687.8804,283.0379 Z Z M702.5079,382.1969 C701.3596,409.4075 696.2054,435.0880 687.8804,458.0884 C647.7734,456.8212 607.6396,456.1980 567.4782,456.2165 C526.9909,456.2349 486.5046,456.9074 446.0173,458.2249 C437.6629,435.1893 432.4903,409.4611 431.3396,382.1969 L702.5079,382.1969 Z Z M678.4347,480.3467 C653.8949,530.1841 613.1028,562.7985 566.9237,562.7985 C520.7831,562.7985 480.0229,530.2385 455.4764,480.4723 C492.8338,479.3374 530.1677,478.7587 567.4782,478.7411 C604.4628,478.7244 641.4483,479.2579 678.4347,480.3467 Z Z M652.2157,183.9225 C730.3467,194.3515 798.2816,218.7823 846.4448,252.0123 C800.9265,255.4261 755.4099,257.9915 709.8933,259.7185 C695.7833,228.6175 675.9170,202.5141 652.2157,183.9225 Z Z M872.5088,272.6182 C900.5202,298.1688 917.9149,327.5319 921.3781,358.9294 L732.8417,358.9294 C731.7420,331.6241 726.7880,305.6580 718.6865,281.9366 C770.0064,279.8913 821.2811,276.7882 872.5088,272.6182 Z Z M921.3781,382.1969 C917.9149,413.5944 900.5176,442.9566 872.5097,468.5081 C821.2819,464.3380 770.0073,461.2350 718.6865,459.1897 C726.7880,435.4682 731.7412,409.5022 732.8417,382.1969 L921.3781,382.1969 Z Z M846.4448,489.1140 C798.2849,522.3448 730.3458,546.7740 652.2157,557.2029 C675.9170,538.6114 695.7833,512.5088 709.8924,481.4078 C755.4090,483.1340 800.9273,485.7002 846.4448,489.1140 Z Z M481.6318,557.2029 C403.6473,546.7941 335.8163,522.4352 287.6732,489.2991 C333.1580,485.9020 378.6093,483.3207 424.0254,481.5602 C438.1294,512.5942 457.9698,538.6424 481.6318,557.2029 Z Z M261.5421,468.6949 C233.4135,443.0990 215.9409,413.6706 212.4693,382.1969 L401.0058,382.1969 C402.1088,409.5642 407.0812,435.5863 415.2162,459.3514 C363.9901,461.4343 312.7657,464.5516 261.5421,468.6949 Z Z M212.4693,358.9294 C215.9409,327.4548 233.4102,298.0247 261.5430,272.4305 C312.7665,276.5738 363.9909,279.6911 415.2162,281.7741 C407.0821,305.5391 402.1079,331.5621 401.0058,358.9294 L212.4693,358.9294 Z Z M287.6732,251.8272 C335.8197,218.6927 403.6473,194.3314 481.6318,183.9225 C457.9698,202.4831 438.1320,228.5320 424.0254,259.5652 C378.6093,257.8047 333.1580,255.2243 287.6732,251.8272 Z"
         style="fill-rule: evenodd; fill: #fef303; "
         id="path4" />
      <path
         d="  M655.9552,630.8113 C570.5427,587.1666 474.8687,551.0085 355.1357,547.1584 C462.4506,534.5175 570.1566,540.6022 673.1289,594.2479 C737.7656,627.9218 793.9004,607.1744 847.6374,588.7076 C800.5973,635.8457 740.4080,673.9644 655.9552,630.8113 Z"
         style="fill-rule: evenodd; fill: #001aff; "
         id="path5" />
      <text
         x="344.7737"
         y="775.9015"
         id="text5"><tspan
           font-family="Bauhaus 93"
           font-size="149.0000"
           fill="#000000"
           id="tspan5">
BAN-PT</tspan></text>
      <path
         d="  M559.8482,567.1512 L414.7019,329.7648 L564.0032,463.0005 L794.4649,74.4987 L559.8482,567.1512 Z"
         style="fill-rule: evenodd; fill: #ff0000; "
         id="path6" />
    </g>
  </g>
</svg>
